<?xml version="1.0" encoding="UTF-8" standalone="no"?>
<!DOCTYPE svg PUBLIC "-//W3C//DTD SVG 1.1//EN" "http://www.w3.org/Graphics/SVG/1.1/DTD/svg11.dtd">
<svg xmlns="http://www.w3.org/2000/svg" version="1.1" viewBox="0.00 0.00 500.00 500.00">
<g stroke-width="2.00" fill="none" stroke-linecap="butt">
<path stroke="#facd94" vector-effect="non-scaling-stroke" d="
  M 367.39 259.30
  Q 365.89 260.22 363.65 260.62"
/>
<path stroke="#facd94" vector-effect="non-scaling-stroke" d="
  M 136.23 261.22
  L 131.13 260.03"
/>
<path stroke="#facd94" vector-effect="non-scaling-stroke" d="
  M 416.21 260.10
  L 420.71 277.70"
/>
<path stroke="#facd94" vector-effect="non-scaling-stroke" d="
  M 81.62 277.40
  L 87.97 257.43"
/>
<path stroke="#dadfe3" vector-effect="non-scaling-stroke" d="
  M 345.21 290.90
  Q 345.03 289.69 346.46 289.88
  A 0.37 0.37 0.0 0 0 346.88 289.50
  Q 346.88 289.37 346.88 289.23
  A 0.60 0.60 0.0 0 0 346.56 288.70
  Q 345.74 288.26 344.52 288.23"
/>
<path stroke="#dadfe3" vector-effect="non-scaling-stroke" d="
  M 179.40 321.89
  Q 178.41 322.79 177.94 324.53
  Q 177.89 324.71 178.07 324.67
  Q 178.24 324.64 178.39 324.73
  Q 178.78 324.97 178.33 325.09
  Q 176.93 325.47 177.02 325.92"
/>
<path stroke="#dadfe3" vector-effect="non-scaling-stroke" d="
  M 195.27 340.17
  Q 195.59 343.58 194.37 344.95"
/>
<path stroke="#dadfe3" vector-effect="non-scaling-stroke" d="
  M 134.87 376.27
  Q 136.44 385.08 137.09 393.75
  Q 137.18 394.89 138.57 397.24"
/>
<path stroke="#7e7e7e" vector-effect="non-scaling-stroke" d="
  M 367.95 385.01
  L 331.37 394.21"
/>
<path stroke="#f9d492" vector-effect="non-scaling-stroke" d="
  M 162.60 238.12
  Q 157.61 252.33 157.02 267.59
  A 1.22 1.21 10.0 0 0 157.88 268.80
  Q 180.67 275.87 203.19 283.65
  C 214.66 287.62 223.07 291.89 233.05 296.31
  C 236.82 297.97 241.89 300.75 246.57 302.49
  C 249.11 303.43 251.11 302.82 253.34 301.64
  C 267.32 294.23 282.25 287.01 297.32 282.08
  C 311.93 277.29 326.44 272.39 341.32 268.18
  A 1.43 1.43 0.0 0 0 342.36 266.74
  Q 341.79 253.02 337.52 239.72"
/>
<path stroke="#f8df8e" vector-effect="non-scaling-stroke" d="
  M 337.52 239.72
  C 333.44 227.19 328.51 219.29 322.11 209.49
  C 317.30 202.15 311.60 197.60 304.17 191.79
  C 295.07 184.67 285.04 179.45 273.75 176.76
  C 255.19 172.34 233.98 173.13 215.76 180.53
  C 204.11 185.26 193.79 192.60 184.86 201.51
  C 178.97 207.38 174.29 215.08 169.54 222.26
  Q 166.78 226.43 162.60 238.12"
/>
<path stroke="#f4b724" vector-effect="non-scaling-stroke" d="
  M 337.52 239.72
  Q 336.58 239.32 336.60 240.10
  Q 336.61 240.41 336.30 240.40
  Q 336.08 240.39 335.95 240.24
  Q 335.67 239.91 335.45 240.28
  Q 334.97 241.06 334.02 240.86
  A 1.50 1.47 -48.0 0 0 333.21 240.91
  L 321.27 245.28
  Q 320.97 245.39 321.07 245.68
  Q 321.22 246.11 320.59 246.14
  Q 320.25 246.17 319.91 246.10
  Q 319.35 246.01 319.01 246.17
  Q 316.00 247.54 312.82 248.47
  Q 312.39 248.59 312.39 249.04
  L 312.39 249.47
  Q 312.39 249.88 311.97 249.89
  C 310.21 249.90 308.46 249.73 306.75 250.25
  Q 298.66 252.71 290.47 254.77
  C 288.87 255.17 286.85 255.26 285.08 255.74
  C 282.45 256.44 280.12 256.58 277.64 257.19
  C 276.04 257.58 274.56 257.40 272.93 257.60
  Q 272.55 257.65 272.26 257.90
  Q 271.86 258.25 271.51 257.87
  Q 267.38 258.43 263.24 258.87
  C 262.39 258.96 261.21 258.77 260.28 258.99
  C 257.94 259.57 255.71 259.56 253.32 259.64
  Q 252.84 259.66 253.26 259.49
  Q 253.36 259.45 253.51 259.49
  Q 254.77 259.78 255.54 258.92
  A 1.15 1.13 20.1 0 1 256.37 258.54
  L 257.73 258.51
  A 0.12 0.12 0.0 0 0 257.75 258.27
  Q 256.14 257.87 254.53 258.19
  C 250.37 259.03 247.56 257.99 243.56 257.85
  Q 243.07 257.84 242.84 257.39
  Q 242.58 256.87 242.01 256.83
  Q 241.05 256.76 240.99 256.74
  Q 234.93 255.17 228.95 253.29
  C 227.74 252.91 226.41 252.84 225.09 252.35
  C 222.17 251.27 219.15 250.55 216.18 249.62
  Q 212.91 248.60 209.99 247.95
  Q 204.51 246.73 199.08 245.28
  Q 197.78 244.94 196.13 245.00
  Q 194.04 245.07 193.12 244.63
  Q 188.63 242.48 183.13 241.14
  C 181.18 240.67 179.37 239.43 177.55 238.96
  Q 176.38 238.65 175.17 238.43
  Q 174.00 238.21 172.84 237.76
  Q 169.28 236.37 165.41 235.97
  Q 164.90 235.92 164.71 236.40
  Q 163.90 238.46 162.60 238.12"
/>
<path stroke="#7a6110" vector-effect="non-scaling-stroke" d="
  M 271.72 214.97
  C 283.19 207.58 293.36 214.41 302.29 221.42
  Q 303.57 222.42 303.31 220.81
  Q 302.16 213.71 295.95 209.33
  C 288.27 203.92 279.44 202.20 271.60 208.31
  Q 269.04 210.30 267.67 213.64
  A 1.64 1.64 0.0 0 0 269.27 215.90
  Q 270.37 215.84 271.72 214.97"
/>
<path stroke="#7a6110" vector-effect="non-scaling-stroke" d="
  M 222.11 212.27
  C 225.35 212.64 227.81 214.25 230.80 215.36
  Q 231.82 215.73 232.71 215.50
  A 0.97 0.97 0.0 0 0 233.34 214.12
  C 229.19 205.74 220.89 202.66 212.06 205.51
  C 206.08 207.44 198.43 213.28 197.89 220.29
  A 0.53 0.53 0.0 0 0 198.72 220.77
  C 206.24 215.71 212.40 211.16 222.11 212.27"
/>
<path stroke="#f8df8e" vector-effect="non-scaling-stroke" d="
  M 189.41 222.52
  L 191.14 220.14
  A 0.28 0.28 0.0 0 0 190.73 219.76
  C 184.94 224.66 191.45 232.29 196.27 234.60
  C 200.62 236.70 204.68 232.18 206.60 228.69
  Q 207.53 226.99 205.69 227.59
  Q 199.02 229.78 191.78 227.03
  Q 189.49 226.16 189.05 224.36
  A 2.23 2.21 -34.2 0 1 189.41 222.52"
/>
<path stroke="#f8df8e" vector-effect="non-scaling-stroke" d="
  M 312.89 224.11
  C 309.03 228.50 301.12 230.04 295.71 227.21
  A 0.54 0.54 0.0 0 0 294.93 227.75
  C 295.10 229.24 296.02 230.67 296.95 231.96
  C 302.66 239.92 311.96 230.64 313.63 224.51
  Q 314.12 222.72 312.89 224.11"
/>
<path stroke="#7a6110" vector-effect="non-scaling-stroke" d="
  M 264.43 235.97
  L 264.38 235.65
  A 0.81 0.81 0.0 0 0 263.07 235.13
  Q 253.62 242.66 242.37 239.08
  C 240.40 238.45 239.02 237.10 237.48 235.81
  A 1.39 1.38 -50.6 0 0 235.51 236.01
  Q 233.19 238.91 235.18 241.56
  C 243.02 252.01 257.87 251.28 264.83 240.31
  Q 265.95 238.53 264.76 236.83
  Q 264.49 236.44 264.43 235.97"
/>
</g>
<path fill="#f79d2c" d="
  M 367.39 259.30
  Q 365.89 260.22 363.65 260.62
  C 362.64 244.16 360.12 229.98 352.54 215.40
  Q 345.38 201.64 342.33 198.17
  Q 339.04 194.43 335.84 190.68
  C 304.56 154.08 256.52 141.71 211.26 157.75
  C 189.41 165.50 171.26 180.93 157.21 199.21
  Q 149.43 209.33 142.55 226.30
  Q 136.38 241.55 136.23 261.22
  L 131.13 260.03
  L 133.17 240.19
  Q 133.22 239.70 132.80 239.42
  C 121.50 231.85 112.09 224.12 101.84 216.30
  Q 97.07 212.66 90.68 207.11
  C 83.86 201.18 77.70 198.03 72.06 192.70
  Q 71.73 192.39 71.74 192.26
  A 0.59 0.58 4.3 0 1 72.38 191.72
  Q 77.75 192.22 82.99 192.62
  Q 115.86 195.16 148.75 197.46
  Q 150.87 197.61 152.56 197.45
  A 1.75 1.75 0.0 0 0 153.82 196.71
  Q 158.95 189.29 164.86 182.83
  Q 166.28 181.27 165.39 178.98
  C 160.80 167.21 155.67 151.59 152.75 143.35
  Q 145.98 124.24 139.32 105.10
  Q 139.07 104.40 139.66 104.86
  L 203.17 154.06
  Q 204.49 155.08 206.06 154.54
  L 225.29 148.01
  A 1.74 1.73 89.7 0 0 226.37 146.91
  L 249.52 75.83
  Q 249.84 74.87 250.14 75.83
  C 253.41 86.20 257.17 96.65 260.73 107.07
  Q 267.64 127.28 274.50 147.50
  Q 274.90 148.70 276.11 149.00
  Q 285.13 151.26 293.56 155.18
  Q 294.46 155.60 295.90 155.47
  Q 296.37 155.42 296.72 155.12
  C 300.66 151.75 304.49 148.19 308.55 145.09
  Q 325.55 132.15 342.36 118.96
  C 346.74 115.51 354.03 110.11 359.62 105.26
  Q 360.16 104.78 360.53 105.41
  Q 360.65 105.62 360.39 106.38
  Q 351.04 133.57 341.93 160.85
  C 339.88 166.98 337.03 174.27 335.13 180.38
  C 334.76 181.60 335.35 182.78 336.27 183.74
  Q 341.45 189.10 345.12 195.61
  C 346.49 198.06 350.14 197.38 352.50 197.21
  Q 375.65 195.55 398.82 193.97
  C 406.81 193.43 417.99 192.32 427.60 191.78
  Q 428.32 191.74 428.02 192.39
  Q 427.55 193.41 426.58 194.10
  C 415.37 202.12 407.08 209.61 397.42 217.05
  C 387.26 224.87 377.19 232.84 366.68 240.08
  A 1.79 1.78 -19.7 0 0 365.90 241.71
  L 367.39 259.30
  Z"
/>
<path fill="#fcfcfc" d="
  M 363.65 260.62
  Q 365.89 260.22 367.39 259.30
  L 411.41 249.32
  A 1.18 1.18 0.0 0 1 412.79 250.09
  L 416.21 260.10
  L 420.71 277.70
  C 419.07 278.01 418.22 277.91 417.30 276.43
  Q 412.57 268.76 407.70 258.70
  Q 407.20 257.66 406.06 257.87
  C 396.89 259.53 387.22 260.80 378.34 262.73
  C 354.90 267.85 336.81 272.39 314.72 280.01
  C 312.09 280.92 308.70 281.40 305.76 282.56
  C 298.15 285.57 290.23 288.36 282.97 291.53
  Q 267.26 298.40 256.92 303.15
  C 253.92 304.53 250.01 308.18 246.24 306.25
  C 241.45 303.79 235.68 301.50 231.57 299.61
  Q 212.19 290.70 190.74 282.98
  C 187.46 281.79 183.72 280.96 181.11 280.11
  C 158.18 272.66 142.09 268.45 116.39 262.17
  C 110.61 260.75 103.19 259.68 96.66 257.87
  Q 96.14 257.73 95.83 258.17
  C 92.04 263.44 87.32 277.34 81.62 277.40
  L 87.97 257.43
  L 90.64 249.57
  Q 90.82 249.04 91.37 249.19
  L 131.13 260.03
  L 136.23 261.22
  L 145.27 263.99
  A 0.70 0.70 0.0 0 0 146.18 263.35
  C 146.81 247.66 150.57 232.13 157.69 218.44
  C 161.41 211.28 167.02 202.88 173.24 196.49
  C 175.77 193.90 178.12 190.80 180.64 188.55
  C 200.92 170.49 228.54 159.42 255.99 161.36
  C 271.09 162.43 286.86 166.79 300.11 174.69
  C 308.58 179.73 316.63 184.58 323.18 192.14
  C 326.18 195.60 329.67 198.89 332.22 202.30
  C 344.95 219.36 352.83 240.42 353.19 261.90
  A 1.30 1.30 0.0 0 0 354.85 263.13
  L 363.65 260.62
  Z
  M 162.60 238.12
  Q 157.61 252.33 157.02 267.59
  A 1.22 1.21 10.0 0 0 157.88 268.80
  Q 180.67 275.87 203.19 283.65
  C 214.66 287.62 223.07 291.89 233.05 296.31
  C 236.82 297.97 241.89 300.75 246.57 302.49
  C 249.11 303.43 251.11 302.82 253.34 301.64
  C 267.32 294.23 282.25 287.01 297.32 282.08
  C 311.93 277.29 326.44 272.39 341.32 268.18
  A 1.43 1.43 0.0 0 0 342.36 266.74
  Q 341.79 253.02 337.52 239.72
  C 333.44 227.19 328.51 219.29 322.11 209.49
  C 317.30 202.15 311.60 197.60 304.17 191.79
  C 295.07 184.67 285.04 179.45 273.75 176.76
  C 255.19 172.34 233.98 173.13 215.76 180.53
  C 204.11 185.26 193.79 192.60 184.86 201.51
  C 178.97 207.38 174.29 215.08 169.54 222.26
  Q 166.78 226.43 162.60 238.12
  Z"
/>
<path fill="#f3c120" d="
  M 337.52 239.72
  Q 336.58 239.32 336.60 240.10
  Q 336.61 240.41 336.30 240.40
  Q 336.08 240.39 335.95 240.24
  Q 335.67 239.91 335.45 240.28
  Q 334.97 241.06 334.02 240.86
  A 1.50 1.47 -48.0 0 0 333.21 240.91
  L 321.27 245.28
  Q 320.97 245.39 321.07 245.68
  Q 321.22 246.11 320.59 246.14
  Q 320.25 246.17 319.91 246.10
  Q 319.35 246.01 319.01 246.17
  Q 316.00 247.54 312.82 248.47
  Q 312.39 248.59 312.39 249.04
  L 312.39 249.47
  Q 312.39 249.88 311.97 249.89
  C 310.21 249.90 308.46 249.73 306.75 250.25
  Q 298.66 252.71 290.47 254.77
  C 288.87 255.17 286.85 255.26 285.08 255.74
  C 282.45 256.44 280.12 256.58 277.64 257.19
  C 276.04 257.58 274.56 257.40 272.93 257.60
  Q 272.55 257.65 272.26 257.90
  Q 271.86 258.25 271.51 257.87
  Q 267.38 258.43 263.24 258.87
  C 262.39 258.96 261.21 258.77 260.28 258.99
  C 257.94 259.57 255.71 259.56 253.32 259.64
  Q 252.84 259.66 253.26 259.49
  Q 253.36 259.45 253.51 259.49
  Q 254.77 259.78 255.54 258.92
  A 1.15 1.13 20.1 0 1 256.37 258.54
  L 257.73 258.51
  A 0.12 0.12 0.0 0 0 257.75 258.27
  Q 256.14 257.87 254.53 258.19
  C 250.37 259.03 247.56 257.99 243.56 257.85
  Q 243.07 257.84 242.84 257.39
  Q 242.58 256.87 242.01 256.83
  Q 241.05 256.76 240.99 256.74
  Q 234.93 255.17 228.95 253.29
  C 227.74 252.91 226.41 252.84 225.09 252.35
  C 222.17 251.27 219.15 250.55 216.18 249.62
  Q 212.91 248.60 209.99 247.95
  Q 204.51 246.73 199.08 245.28
  Q 197.78 244.94 196.13 245.00
  Q 194.04 245.07 193.12 244.63
  Q 188.63 242.48 183.13 241.14
  C 181.18 240.67 179.37 239.43 177.55 238.96
  Q 176.38 238.65 175.17 238.43
  Q 174.00 238.21 172.84 237.76
  Q 169.28 236.37 165.41 235.97
  Q 164.90 235.92 164.71 236.40
  Q 163.90 238.46 162.60 238.12
  Q 166.78 226.43 169.54 222.26
  C 174.29 215.08 178.97 207.38 184.86 201.51
  C 193.79 192.60 204.11 185.26 215.76 180.53
  C 233.98 173.13 255.19 172.34 273.75 176.76
  C 285.04 179.45 295.07 184.67 304.17 191.79
  C 311.60 197.60 317.30 202.15 322.11 209.49
  C 328.51 219.29 333.44 227.19 337.52 239.72
  Z
  M 271.72 214.97
  C 283.19 207.58 293.36 214.41 302.29 221.42
  Q 303.57 222.42 303.31 220.81
  Q 302.16 213.71 295.95 209.33
  C 288.27 203.92 279.44 202.20 271.60 208.31
  Q 269.04 210.30 267.67 213.64
  A 1.64 1.64 0.0 0 0 269.27 215.90
  Q 270.37 215.84 271.72 214.97
  Z
  M 222.11 212.27
  C 225.35 212.64 227.81 214.25 230.80 215.36
  Q 231.82 215.73 232.71 215.50
  A 0.97 0.97 0.0 0 0 233.34 214.12
  C 229.19 205.74 220.89 202.66 212.06 205.51
  C 206.08 207.44 198.43 213.28 197.89 220.29
  A 0.53 0.53 0.0 0 0 198.72 220.77
  C 206.24 215.71 212.40 211.16 222.11 212.27
  Z
  M 189.41 222.52
  L 191.14 220.14
  A 0.28 0.28 0.0 0 0 190.73 219.76
  C 184.94 224.66 191.45 232.29 196.27 234.60
  C 200.62 236.70 204.68 232.18 206.60 228.69
  Q 207.53 226.99 205.69 227.59
  Q 199.02 229.78 191.78 227.03
  Q 189.49 226.16 189.05 224.36
  A 2.23 2.21 -34.2 0 1 189.41 222.52
  Z
  M 312.89 224.11
  C 309.03 228.50 301.12 230.04 295.71 227.21
  A 0.54 0.54 0.0 0 0 294.93 227.75
  C 295.10 229.24 296.02 230.67 296.95 231.96
  C 302.66 239.92 311.96 230.64 313.63 224.51
  Q 314.12 222.72 312.89 224.11
  Z
  M 264.43 235.97
  L 264.38 235.65
  A 0.81 0.81 0.0 0 0 263.07 235.13
  Q 253.62 242.66 242.37 239.08
  C 240.40 238.45 239.02 237.10 237.48 235.81
  A 1.39 1.38 -50.6 0 0 235.51 236.01
  Q 233.19 238.91 235.18 241.56
  C 243.02 252.01 257.87 251.28 264.83 240.31
  Q 265.95 238.53 264.76 236.83
  Q 264.49 236.44 264.43 235.97
  Z"
/>
<path fill="#000000" d="
  M 302.29 221.42
  C 293.36 214.41 283.19 207.58 271.72 214.97
  Q 270.37 215.84 269.27 215.90
  A 1.64 1.64 0.0 0 1 267.67 213.64
  Q 269.04 210.30 271.60 208.31
  C 279.44 202.20 288.27 203.92 295.95 209.33
  Q 302.16 213.71 303.31 220.81
  Q 303.57 222.42 302.29 221.42
  Z"
/>
<path fill="#000000" d="
  M 222.11 212.27
  C 212.40 211.16 206.24 215.71 198.72 220.77
  A 0.53 0.53 0.0 0 1 197.89 220.29
  C 198.43 213.28 206.08 207.44 212.06 205.51
  C 220.89 202.66 229.19 205.74 233.34 214.12
  A 0.97 0.97 0.0 0 1 232.71 215.50
  Q 231.82 215.73 230.80 215.36
  C 227.81 214.25 225.35 212.64 222.11 212.27
  Z"
/>
<path fill="#fcfcfc" d="
  M 189.41 222.52
  A 2.23 2.21 -34.2 0 0 189.05 224.36
  Q 189.49 226.16 191.78 227.03
  Q 199.02 229.78 205.69 227.59
  Q 207.53 226.99 206.60 228.69
  C 204.68 232.18 200.62 236.70 196.27 234.60
  C 191.45 232.29 184.94 224.66 190.73 219.76
  A 0.28 0.28 0.0 0 1 191.14 220.14
  L 189.41 222.52
  Z"
/>
<path fill="#fcfcfc" d="
  M 295.71 227.21
  C 301.12 230.04 309.03 228.50 312.89 224.11
  Q 314.12 222.72 313.63 224.51
  C 311.96 230.64 302.66 239.92 296.95 231.96
  C 296.02 230.67 295.10 229.24 294.93 227.75
  A 0.54 0.54 0.0 0 1 295.71 227.21
  Z"
/>
<path fill="#000000" d="
  M 264.76 236.83
  Q 265.95 238.53 264.83 240.31
  C 257.87 251.28 243.02 252.01 235.18 241.56
  Q 233.19 238.91 235.51 236.01
  A 1.39 1.38 -50.6 0 1 237.48 235.81
  C 239.02 237.10 240.40 238.45 242.37 239.08
  Q 253.62 242.66 263.07 235.13
  A 0.81 0.81 0.0 0 1 264.38 235.65
  L 264.43 235.97
  Q 264.49 236.44 264.76 236.83
  Z"
/>
<path fill="#f5ac28" d="
  M 337.52 239.72
  Q 341.79 253.02 342.36 266.74
  A 1.43 1.43 0.0 0 1 341.32 268.18
  C 326.44 272.39 311.93 277.29 297.32 282.08
  C 282.25 287.01 267.32 294.23 253.34 301.64
  C 251.11 302.82 249.11 303.43 246.57 302.49
  C 241.89 300.75 236.82 297.97 233.05 296.31
  C 223.07 291.89 214.66 287.62 203.19 283.65
  Q 180.67 275.87 157.88 268.80
  A 1.22 1.21 10.0 0 1 157.02 267.59
  Q 157.61 252.33 162.60 238.12
  Q 163.90 238.46 164.71 236.40
  Q 164.90 235.92 165.41 235.97
  Q 169.28 236.37 172.84 237.76
  Q 174.00 238.21 175.17 238.43
  Q 176.38 238.65 177.55 238.96
  C 179.37 239.43 181.18 240.67 183.13 241.14
  Q 188.63 242.48 193.12 244.63
  Q 194.04 245.07 196.13 245.00
  Q 197.78 244.94 199.08 245.28
  Q 204.51 246.73 209.99 247.95
  Q 212.91 248.60 216.18 249.62
  C 219.15 250.55 222.17 251.27 225.09 252.35
  C 226.41 252.84 227.74 252.91 228.95 253.29
  Q 234.93 255.17 240.99 256.74
  Q 241.05 256.76 242.01 256.83
  Q 242.58 256.87 242.84 257.39
  Q 243.07 257.84 243.56 257.85
  C 247.56 257.99 250.37 259.03 254.53 258.19
  Q 256.14 257.87 257.75 258.27
  A 0.12 0.12 0.0 0 1 257.73 258.51
  L 256.37 258.54
  A 1.15 1.13 20.1 0 0 255.54 258.92
  Q 254.77 259.78 253.51 259.49
  Q 253.36 259.45 253.26 259.49
  Q 252.84 259.66 253.32 259.64
  C 255.71 259.56 257.94 259.57 260.28 258.99
  C 261.21 258.77 262.39 258.96 263.24 258.87
  Q 267.38 258.43 271.51 257.87
  Q 271.86 258.25 272.26 257.90
  Q 272.55 257.65 272.93 257.60
  C 274.56 257.40 276.04 257.58 277.64 257.19
  C 280.12 256.58 282.45 256.44 285.08 255.74
  C 286.85 255.26 288.87 255.17 290.47 254.77
  Q 298.66 252.71 306.75 250.25
  C 308.46 249.73 310.21 249.90 311.97 249.89
  Q 312.39 249.88 312.39 249.47
  L 312.39 249.04
  Q 312.39 248.59 312.82 248.47
  Q 316.00 247.54 319.01 246.17
  Q 319.35 246.01 319.91 246.10
  Q 320.25 246.17 320.59 246.14
  Q 321.22 246.11 321.07 245.68
  Q 320.97 245.39 321.27 245.28
  L 333.21 240.91
  A 1.50 1.47 -48.0 0 1 334.02 240.86
  Q 334.97 241.06 335.45 240.28
  Q 335.67 239.91 335.95 240.24
  Q 336.08 240.39 336.30 240.40
  Q 336.61 240.41 336.60 240.10
  Q 336.58 239.32 337.52 239.72
  Z"
/>
<path fill="#f79d2c" d="
  M 87.97 257.43
  L 81.62 277.40
  C 74.20 278.24 66.48 276.10 59.51 275.12
  Q 57.22 274.80 59.24 273.66
  L 87.97 257.43
  Z"
/>
<path fill="#f79d2c" d="
  M 416.21 260.10
  L 440.14 273.52
  Q 440.83 273.91 440.22 274.41
  Q 440.11 274.49 439.68 274.58
  C 433.45 275.79 427.20 277.70 420.71 277.70
  L 416.21 260.10
  Z"
/>
<path fill="#fcfcfc" d="
  M 404.88 305.44
  C 407.29 297.58 409.25 289.50 412.63 281.45
  Q 413.09 280.35 414.27 280.31
  L 420.29 280.07
  Q 421.44 280.02 421.05 281.10
  C 414.79 298.62 410.77 309.80 406.74 324.49
  C 406.15 326.63 406.05 329.06 405.54 331.00
  Q 397.05 362.86 394.07 389.25
  Q 393.42 394.93 392.28 417.41
  Q 392.24 418.13 391.86 417.52
  Q 391.18 416.42 391.02 415.19
  Q 388.57 396.89 390.33 378.50
  Q 393.90 341.21 404.88 305.44
  Z"
/>
<path fill="#fcfcfc" d="
  M 79.02 281.35
  Q 78.59 280.24 79.78 280.25
  L 86.79 280.25
  Q 88.08 280.25 88.46 281.49
  C 90.15 287.01 91.99 292.45 93.40 298.21
  Q 94.17 301.39 95.10 304.54
  Q 104.91 337.75 108.65 364.75
  C 111.15 382.80 111.88 400.54 108.83 417.31
  Q 108.06 421.51 107.87 417.25
  Q 106.90 394.90 103.69 371.75
  Q 101.95 359.16 95.30 333.48
  C 94.31 329.67 93.42 324.79 92.19 320.50
  Q 86.87 301.77 79.02 281.35
  Z"
/>
<path fill="#b8c2c9" d="
  M 345.21 290.90
  Q 345.03 289.69 346.46 289.88
  A 0.37 0.37 0.0 0 0 346.88 289.50
  Q 346.88 289.37 346.88 289.23
  A 0.60 0.60 0.0 0 0 346.56 288.70
  Q 345.74 288.26 344.52 288.23
  Q 347.84 287.43 353.75 286.54
  C 366.00 284.68 374.92 283.03 384.55 282.33
  Q 388.61 282.04 392.64 281.58
  Q 392.80 281.56 392.82 281.72
  L 392.82 281.73
  Q 392.84 281.88 392.68 281.91
  L 345.21 290.90
  Z"
/>
<path fill="#fcfcfc" d="
  M 344.52 288.23
  Q 345.74 288.26 346.56 288.70
  A 0.60 0.60 0.0 0 1 346.88 289.23
  Q 346.88 289.37 346.88 289.50
  A 0.37 0.37 0.0 0 1 346.46 289.88
  Q 345.03 289.69 345.21 290.90
  Q 342.21 291.70 336.00 292.76
  C 324.13 294.78 309.42 299.08 294.47 302.84
  C 280.73 306.29 266.98 311.41 253.80 316.86
  A 1.53 1.51 -11.3 0 0 252.87 318.24
  L 252.80 422.31
  Q 252.80 422.67 252.44 422.68
  L 245.36 422.86
  Q 245.13 422.86 245.13 422.62
  L 245.14 318.75
  Q 245.14 317.78 244.20 317.54
  Q 214.30 310.09 185.07 303.58
  C 181.59 302.81 177.52 302.30 173.75 301.49
  Q 147.12 295.77 120.49 290.08
  C 113.68 288.62 107.18 286.71 100.59 284.79
  Q 100.29 284.70 100.54 284.50
  Q 100.64 284.41 100.75 284.33
  Q 100.82 284.27 100.90 284.28
  Q 106.12 284.65 111.26 285.65
  Q 145.25 292.24 179.23 298.93
  C 190.23 301.10 201.89 303.01 212.20 305.34
  Q 229.83 309.32 247.68 313.97
  Q 248.24 314.12 248.79 313.93
  C 259.47 310.14 270.24 306.00 281.25 303.01
  C 302.20 297.31 321.07 292.55 344.52 288.23
  Z"
/>
<path fill="#000000" d="
  M 277.63 321.38
  Q 280.50 320.65 282.45 319.91
  Q 286.02 318.55 287.17 318.28
  Q 302.72 314.52 312.74 311.73
  C 326.92 307.80 340.18 304.64 355.02 301.58
  Q 363.02 299.93 393.35 291.53
  Q 395.00 291.08 394.34 292.65
  L 393.18 295.41
  Q 392.57 296.87 391.04 297.25
  Q 384.67 298.85 377.84 300.83
  C 374.08 301.92 369.87 302.22 366.50 303.02
  Q 346.01 307.85 325.43 312.30
  C 314.13 314.75 299.41 318.88 286.13 321.27
  Q 286.07 321.28 282.84 321.45
  C 280.85 321.56 279.72 322.69 278.03 323.05
  C 274.41 323.83 268.84 325.24 264.31 325.46
  Q 263.42 325.50 264.18 325.02
  C 267.88 322.72 273.38 322.45 277.63 321.38
  Z"
/>
<path fill="#000000" d="
  M 111.28 296.76
  L 112.28 297.09
  Q 112.94 297.31 112.33 297.63
  Q 111.95 297.83 111.50 297.70
  Q 110.80 297.49 111.05 296.87
  A 0.18 0.18 0.0 0 1 111.28 296.76
  Z"
/>
<ellipse fill="#000000" cx="0.00" cy="0.00" transform="translate(111.52,302.74) rotate(81.7)" rx="1.10" ry="0.43"/>
<path fill="#b8c2c9" d="
  M 179.40 321.89
  Q 178.41 322.79 177.94 324.53
  Q 177.89 324.71 178.07 324.67
  Q 178.24 324.64 178.39 324.73
  Q 178.78 324.97 178.33 325.09
  Q 176.93 325.47 177.02 325.92
  Q 167.17 324.18 157.22 322.72
  C 142.78 320.60 128.77 316.99 114.18 313.94
  A 1.83 1.83 0.0 0 1 112.82 312.68
  L 111.00 306.52
  A 0.51 0.50 89.3 0 1 111.61 305.89
  Q 124.26 309.24 137.01 312.78
  C 146.31 315.35 163.53 318.15 179.40 321.89
  Z"
/>
<path fill="#000000" d="
  M 345.07 324.35
  Q 349.93 322.02 344.68 323.23
  C 333.29 325.84 321.22 328.33 309.55 331.14
  C 306.65 331.85 303.52 332.15 300.84 332.82
  Q 289.11 335.75 277.44 338.85
  Q 277.24 338.91 277.18 338.71
  L 277.17 338.70
  Q 277.11 338.51 277.30 338.43
  Q 283.13 336.13 289.26 334.74
  C 295.56 333.31 302.62 331.11 307.94 329.78
  C 329.77 324.34 351.75 319.77 373.48 313.85
  Q 376.63 312.99 378.26 312.88
  Q 381.67 312.64 378.47 313.83
  C 373.39 315.72 367.76 316.84 362.85 319.13
  Q 361.11 319.94 362.98 319.55
  Q 374.10 317.20 384.97 314.12
  A 1.70 1.70 0.0 0 1 387.14 315.76
  C 387.14 319.74 377.90 321.46 374.89 322.16
  Q 371.12 323.05 363.24 325.25
  C 334.11 333.40 312.40 339.65 288.73 344.70
  C 283.28 345.86 275.71 348.31 268.83 349.29
  Q 267.37 349.50 268.34 348.39
  Q 269.75 346.78 272.53 346.08
  Q 307.35 337.33 341.38 325.91
  C 342.72 325.46 344.18 324.77 345.07 324.35
  Z
  M 359.2137 320.6705
  A 2.44 0.25 -9.9 0 0 356.7670 320.8437
  A 2.44 0.25 -9.9 0 0 354.4063 321.5095
  A 2.44 0.25 -9.9 0 0 356.8530 321.3363
  A 2.44 0.25 -9.9 0 0 359.2137 320.6705
  Z"
/>
<path fill="#fcfcfc" d="
  M 179.40 321.89
  L 227.77 330.22
  A 0.29 0.28 -85.2 0 1 228.00 330.50
  L 227.99 334.52
  A 0.21 0.21 0.0 0 1 227.74 334.73
  L 177.02 325.92
  Q 176.93 325.47 178.33 325.09
  Q 178.78 324.97 178.39 324.73
  Q 178.24 324.64 178.07 324.67
  Q 177.89 324.71 177.94 324.53
  Q 178.41 322.79 179.40 321.89
  Z"
/>
<path fill="#b8c2c9" d="
  M 195.27 340.17
  Q 195.59 343.58 194.37 344.95
  C 168.35 341.30 148.16 336.75 118.82 330.33
  A 2.41 2.40 88.1 0 1 117.04 328.66
  L 115.71 324.01
  Q 115.32 322.67 116.67 323.00
  C 149.41 331.13 171.93 336.00 195.27 340.17
  Z"
/>
<path fill="#000000" d="
  M 269.59 363.39
  C 276.02 361.54 282.20 358.94 288.22 357.46
  C 310.39 352.00 332.25 345.38 354.33 339.57
  C 362.89 337.31 371.91 334.13 380.79 331.59
  A 0.60 0.59 5.0 0 1 381.49 332.42
  C 380.45 334.55 378.87 335.50 376.47 336.24
  C 368.88 338.58 361.29 341.44 353.56 343.19
  Q 347.26 344.62 343.06 345.89
  C 331.48 349.41 321.63 351.76 307.11 355.83
  Q 301.27 357.46 294.31 358.93
  C 284.54 360.98 276.99 364.19 269.16 365.11
  A 0.33 0.33 0.0 0 1 268.80 364.76
  L 268.83 364.33
  A 1.07 1.05 -6.4 0 1 269.59 363.39
  Z"
/>
<path fill="#b8c2c9" d="
  M 122.22 346.99
  L 119.97 339.51
  A 0.14 0.14 0.0 0 1 120.14 339.34
  C 130.85 342.27 143.97 344.50 152.45 346.41
  Q 190.26 354.92 228.08 362.05
  Q 228.70 362.17 228.71 362.80
  L 228.72 365.96
  Q 228.72 366.59 228.09 366.49
  C 224.58 365.97 220.96 365.24 217.44 364.83
  C 185.37 361.05 154.12 353.66 122.54 347.28
  A 0.44 0.43 86.1 0 1 122.22 346.99
  Z"
/>
<path fill="#fcfcfc" d="
  M 195.27 340.17
  L 227.18 345.32
  A 1.19 1.18 4.8 0 1 228.18 346.50
  L 228.17 350.01
  Q 228.16 351.00 227.19 350.82
  L 194.37 344.95
  Q 195.59 343.58 195.27 340.17
  Z"
/>
<path fill="#000000" d="
  M 365.06 353.35
  Q 346.28 358.54 327.44 363.49
  Q 324.36 364.30 321.27 365.11
  Q 296.90 371.50 272.50 377.74
  Q 270.48 378.25 268.42 378.30
  Q 267.78 378.31 267.99 377.71
  Q 268.56 376.07 270.21 375.63
  C 287.25 371.15 297.26 368.00 308.97 365.02
  Q 317.51 362.84 319.48 362.25
  Q 347.82 353.84 376.42 346.37
  Q 377.40 346.11 378.07 346.15
  A 0.65 0.64 -70.8 0 1 378.56 347.17
  C 375.73 351.13 369.45 352.14 365.06 353.35
  Z"
/>
<path fill="#b8c2c9" d="
  M 124.42 356.42
  L 227.20 377.52
  Q 227.96 377.68 228.02 378.46
  L 228.24 381.17
  Q 228.30 382.03 227.44 381.97
  Q 226.49 381.90 225.01 381.68
  Q 212.71 379.79 200.39 378.02
  Q 165.61 373.03 136.74 365.95
  Q 128.29 363.87 125.65 363.43
  Q 125.29 363.37 125.24 363.01
  L 124.26 356.57
  A 0.14 0.14 0.0 0 1 124.42 356.42
  Z"
/>
<path fill="#b8c2c9" d="
  M 126.26 366.40
  Q 125.92 366.29 126.11 366.00
  L 126.40 365.57
  A 0.49 0.47 24.2 0 1 126.94 365.38
  C 143.86 370.25 160.98 373.66 178.18 377.38
  Q 190.10 379.96 202.06 382.33
  C 205.30 382.97 211.44 383.79 216.04 385.11
  Q 216.10 385.13 216.04 385.13
  Q 212.37 385.20 208.70 384.47
  Q 195.51 381.84 182.27 379.41
  Q 161.93 375.68 139.25 370.02
  Q 131.81 368.16 126.26 366.40
  Z"
/>
<path fill="#000000" d="
  M 281.86 396.78
  Q 275.37 398.65 268.73 399.96
  C 265.45 400.61 265.15 396.60 268.04 395.82
  C 281.68 392.16 295.24 388.33 308.96 384.94
  C 314.92 383.46 321.79 381.32 326.69 379.99
  Q 347.52 374.33 368.52 368.47
  Q 369.82 368.11 369.79 369.45
  L 369.77 370.94
  Q 369.75 372.36 368.39 372.80
  Q 349.31 378.99 329.91 383.83
  C 312.33 388.21 297.84 392.19 281.86 396.78
  Z"
/>
<path fill="#fcfcfc" d="
  M 134.87 376.27
  Q 136.44 385.08 137.09 393.75
  Q 137.18 394.89 138.57 397.24
  L 129.49 395.26
  A 1.38 1.37 -86.8 0 1 128.41 394.05
  L 126.57 374.70
  A 0.40 0.39 -85.4 0 1 127.06 374.28
  L 134.87 376.27
  Z"
/>
<path fill="#b8c2c9" d="
  M 134.87 376.27
  Q 164.22 382.99 177.51 384.74
  Q 193.93 386.91 210.33 389.32
  C 216.08 390.17 222.20 390.33 228.20 390.89
  Q 228.83 390.95 228.83 391.58
  L 228.78 413.08
  Q 228.78 414.41 227.45 414.26
  Q 225.53 414.03 223.14 413.53
  Q 201.42 408.98 179.50 405.54
  Q 169.77 404.01 138.57 397.24
  Q 137.18 394.89 137.09 393.75
  Q 136.44 385.08 134.87 376.27
  Z"
/>
<path fill="#000000" d="
  M 367.95 385.01
  L 331.37 394.21
  Q 314.67 397.28 298.04 401.57
  C 288.34 404.08 279.12 406.06 269.67 408.39
  Q 268.36 408.72 268.17 408.68
  Q 264.89 407.96 267.87 406.41
  Q 268.48 406.09 269.79 406.05
  Q 270.92 406.01 271.69 405.82
  Q 297.08 399.50 322.22 392.26
  C 327.80 390.66 334.14 389.30 339.49 387.77
  C 345.54 386.05 350.96 384.96 356.77 383.13
  C 361.79 381.55 366.41 381.01 371.38 378.73
  A 1.01 1.00 -21.8 0 1 372.75 379.31
  C 373.33 381.00 373.49 384.00 370.75 384.06
  Q 369.39 384.08 367.95 385.01
  Z"
/>
<path fill="#fcfcfc" d="
  M 367.95 385.01
  Q 368.63 384.67 368.98 384.98
  A 0.82 0.82 0.0 0 1 368.64 386.39
  Q 359.09 388.93 349.21 390.64
  Q 346.63 391.09 341.47 392.63
  Q 336.47 394.13 331.37 394.21
  L 367.95 385.01
  Z"
/>
<rect fill="#b8c2c9" x="-4.26" y="-0.35" transform="translate(224.67,386.78) rotate(11.2)" width="8.52" height="0.70" rx="0.32"/>
</svg>
